<svg width="617" height="563" viewBox="0 0 617 563" fill="none" xmlns="http://www.w3.org/2000/svg">
    <path fill-rule="evenodd" clip-rule="evenodd"
          d="M235.268 70.7958C308.444 63.7322 386.375 76.9693 436.003 131.181C489.255 189.35 508.553 272.66 490.284 349.362C472.211 425.245 415.695 486.025 344.096 517.06C275.902 546.619 198.89 537.892 132.521 504.437C67.7942 471.81 13.2398 416.002 1.70324 344.468C-9.14441 277.206 33.6619 217.581 77.8991 165.748C119.736 116.727 171.101 76.9896 235.268 70.7958Z"
          fill="#FED215"/>
    <g clip-path="url(#clip0_79:8)">
        <path fill-rule="evenodd" clip-rule="evenodd"
              d="M354.311 39.5488C355.471 39.1354 356.692 38.5861 357.633 37.7908C358.751 36.8461 359.206 35.6295 359.511 34.3488C359.903 32.7035 360.06 30.9508 360.535 29.3028C360.711 28.6908 361.05 28.4594 361.195 28.3568C361.562 28.0974 361.934 28.0281 362.283 28.0541C362.697 28.0841 363.266 28.2408 363.64 28.9348C363.693 29.0341 363.762 29.1854 363.809 29.3928C363.843 29.5448 363.865 30.0201 363.901 30.2161C363.991 30.6988 364.066 31.1814 364.137 31.6668C364.372 33.2821 364.508 34.6541 365.251 36.1381C366.26 38.1528 367.27 39.3854 368.641 39.9314C369.966 40.4594 371.551 40.3601 373.576 39.9461C373.768 39.8995 373.959 39.8594 374.148 39.8268C375.04 39.6708 375.894 40.2568 376.069 41.1461C376.244 42.0348 375.677 42.9008 374.792 43.0961C374.608 43.1368 374.426 43.1754 374.246 43.2108C371.51 43.8881 368.342 46.3054 366.502 48.4221C365.934 49.0748 365.104 50.8994 364.256 52.0634C363.631 52.9221 362.928 53.4881 362.338 53.6881C361.943 53.8228 361.61 53.8021 361.334 53.7341C360.934 53.6355 360.602 53.4188 360.348 53.0741C360.209 52.8854 360.08 52.6328 360.019 52.3101C359.99 52.1548 359.986 51.7601 359.987 51.5815C359.814 50.9875 359.603 50.4074 359.449 49.8081C359.082 48.3781 358.361 47.4728 357.505 46.2768C356.704 45.1574 355.844 44.4541 354.584 43.8928C354.42 43.8528 353.096 43.5288 352.629 43.3428C351.946 43.0701 351.621 42.6134 351.503 42.3674C351.302 41.9501 351.282 41.5854 351.322 41.2814C351.381 40.8328 351.582 40.4488 351.94 40.1388C352.161 39.9461 352.492 39.7588 352.934 39.6674C353.276 39.5961 354.184 39.5548 354.311 39.5488ZM362.074 37.2181C362.136 37.3548 362.201 37.4921 362.27 37.6308C363.748 40.5814 365.4 42.2288 367.408 43.0281L367.475 43.0541C366.132 44.0514 364.916 45.1661 363.986 46.2348C363.604 46.6748 363.097 47.5888 362.55 48.5261C362.052 46.9095 361.239 45.7668 360.216 44.3368C359.435 43.2455 358.616 42.4241 357.61 41.7548C358.391 41.3541 359.136 40.8848 359.784 40.3368C360.864 39.4241 361.578 38.3668 362.074 37.2181Z"
              fill="#FED215"/>
    </g>
    <g clip-path="url(#clip1_79:8)">
        <path fill-rule="evenodd" clip-rule="evenodd"
              d="M501.735 128.04C501.333 126.922 500.982 125.961 500.794 125.455C499.64 122.373 497.704 114.372 494.466 109.273C491.997 105.382 488.766 103.165 484.762 104.886C481.122 106.451 479.434 110.66 479.23 116.098C478.793 127.802 484.96 145.273 488.186 150.07C488.539 150.594 489.246 150.733 489.77 150.381C490.291 150.03 490.431 149.322 490.078 148.799C486.983 144.195 481.09 127.418 481.509 116.182C481.674 111.791 482.723 108.245 485.664 106.982C488.565 105.733 490.75 107.674 492.54 110.495C495.692 115.456 497.535 123.254 498.657 126.255C499.361 128.135 501.844 135.385 502.206 135.955C502.66 136.669 503.309 136.531 503.519 136.47C503.682 136.423 504.478 136.135 504.333 135.108C502.276 120.467 509.252 96.5767 522.655 79.0248C535.94 61.627 555.616 50.4502 579.235 61.1383C579.809 61.3968 580.486 61.1415 580.746 60.5697C581.004 59.9955 580.749 59.3191 580.175 59.0606C555.427 47.8624 534.76 59.413 520.843 77.639C509.113 92.9993 502.234 113.097 501.735 128.04Z"
              fill="#FED215"/>
        <path fill-rule="evenodd" clip-rule="evenodd"
              d="M578.403 59.7109C575.803 60.3993 573.193 61.002 570.645 61.8928C563.857 64.2649 557.306 68.1675 552.402 73.4617C551.974 73.926 552.003 74.6471 552.463 75.0747C552.928 75.5028 553.649 75.4735 554.076 75.0132C558.727 69.9858 564.957 66.2974 571.397 64.0474C574.314 63.0292 577.318 62.3928 580.288 61.5648C580.436 61.5217 581.737 61.2014 581.994 61.0583C582.592 60.7285 582.629 60.2098 582.616 59.9676C582.607 59.7651 582.548 59.5247 582.371 59.2762C582.224 59.073 581.856 58.7527 581.272 58.4292C579.406 57.3872 574.704 55.5813 573.964 55.2032C565.476 50.8703 558.307 45.4143 550.616 39.859C550.104 39.492 549.389 39.6064 549.021 40.1159C548.652 40.6255 548.769 41.3382 549.278 41.7068C557.067 47.3332 564.334 52.8481 572.926 57.2323C573.434 57.494 576.327 58.7876 578.403 59.7109Z"
              fill="#FED215"/>
    </g>
    <path fill-rule="evenodd" clip-rule="evenodd"
          d="M26.1396 522.567C37.2132 543.158 59.3336 551.53 79.8788 539.937C80.5627 539.551 81.43 539.793 81.816 540.468C82.202 541.156 81.9608 542.024 81.2768 542.41C59.2552 554.847 35.5051 545.981 23.6354 523.918C23.2639 523.231 23.5232 522.362 24.2144 521.988C24.9056 521.626 25.7681 521.88 26.1396 522.567Z"
          fill="#FED215"/>
    <path d="M62.5895 531.106C60.3021 531.106 58.4477 529.252 58.4477 526.965C58.4477 524.677 60.3021 522.823 62.5895 522.823C64.8769 522.823 66.7312 524.677 66.7312 526.965C66.7312 529.252 64.8769 531.106 62.5895 531.106Z"
          fill="#FED215"/>
    <path d="M45.4433 526.701C43.2006 526.701 41.3825 524.882 41.3825 522.64C41.3825 520.397 43.2006 518.579 45.4433 518.579C47.686 518.579 49.5041 520.397 49.5041 522.64C49.5041 524.882 47.686 526.701 45.4433 526.701Z"
          fill="#FED215"/>
    <defs>
        <clipPath id="clip0_79:8">
            <rect width="26" height="26" fill="white" transform="translate(351 28.049)"/>
        </clipPath>
        <clipPath id="clip1_79:8">
            <rect width="130" height="130" fill="white" transform="translate(434 78.3952) rotate(-37.0879)"/>
        </clipPath>
    </defs>
</svg>
