<svg width="130" height="130" viewBox="0 0 130 130" fill="none" xmlns="http://www.w3.org/2000/svg">
<path fill-rule="evenodd" clip-rule="evenodd" d="M24.0949 80.449C24.4488 79.3153 24.748 78.3369 24.9034 77.8189C25.8414 74.6652 29.1218 67.1148 29.6138 61.0951C29.9908 56.5027 28.7506 52.785 24.5178 51.7434C20.6707 50.7967 16.7861 53.1361 13.3446 57.3516C5.93802 66.4242 0.32124 84.0803 0.0018417 89.8525C-0.0326879 90.4827 0.447846 91.0207 1.07801 91.0553C1.7053 91.0898 2.24336 90.6093 2.27789 89.9791C2.58578 84.44 8.0012 67.5033 15.1114 58.7932C17.891 55.3891 20.8663 53.1936 23.974 53.959C27.0413 54.7129 27.614 57.5788 27.3406 60.9081C26.863 66.7666 23.6316 74.0984 22.7165 77.1686C22.1439 79.0936 19.7528 86.3737 19.6981 87.047C19.629 87.8901 20.2304 88.1721 20.4347 88.2497C20.593 88.3102 21.4015 88.5605 21.9051 87.6541C29.093 74.7343 49.0655 59.8837 70.3415 53.9648C91.4304 48.0976 113.866 51.047 126.262 73.8164C126.564 74.3689 127.258 74.5731 127.81 74.2739C128.363 73.9717 128.567 73.2783 128.265 72.7258C115.276 48.8688 91.8246 45.6201 69.7314 51.7663C51.1113 56.9458 33.5042 68.8298 24.0949 80.449Z" fill="#FED215"/>
<path fill-rule="evenodd" clip-rule="evenodd" d="M126.459 72.1761C123.97 71.1575 121.524 70.064 118.955 69.2382C112.109 67.0369 104.53 66.1996 97.4257 67.4656C96.8042 67.5779 96.3927 68.1706 96.502 68.7893C96.6142 69.4108 97.207 69.8223 97.8257 69.713C104.568 68.5073 111.761 69.3216 118.256 71.4106C121.196 72.3573 123.976 73.6608 126.845 74.7916C126.989 74.8463 128.22 75.3758 128.511 75.4161C129.187 75.5139 129.53 75.1226 129.665 74.9212C129.78 74.7543 129.878 74.5269 129.886 74.2219C129.892 73.9716 129.791 73.4939 129.521 72.8839C128.661 70.9272 125.999 66.6513 125.636 65.9032C121.478 57.3283 119.05 48.6528 116.264 39.583C116.077 38.9816 115.439 38.6421 114.837 38.8262C114.236 39.0104 113.899 39.6492 114.083 40.2506C116.903 49.4355 119.375 58.2175 123.585 66.8959C123.832 67.411 125.36 70.1878 126.459 72.1761Z" fill="#FED215"/>
</svg>
