<svg width="18" height="18" viewBox="0 0 18 18" fill="none" xmlns="http://www.w3.org/2000/svg">
<path fill-rule="evenodd" clip-rule="evenodd" d="M16.3959 8.55299C15.8369 10.879 15.8735 13.1189 15.8065 15.4782C15.7935 15.939 16.1472 16.322 16.5961 16.3359C17.0453 16.3498 17.4202 15.9862 17.4335 15.5254C17.4969 13.2882 17.4457 11.1593 17.9762 8.94992C18.0836 8.50305 17.8164 8.05062 17.3803 7.94237C16.9444 7.83134 16.5031 8.10612 16.3959 8.55299Z" fill="#FED215"/>
<path fill-rule="evenodd" clip-rule="evenodd" d="M11.6465 4.04522C7.85389 7.59249 4.28048 12.1556 1.78284 16.7632C1.56503 17.1657 1.7069 17.6736 2.09966 17.8957C2.49243 18.1177 2.98826 17.9734 3.20607 17.5709C5.62126 13.116 9.07721 8.70273 12.7445 5.27481C13.0759 4.96394 13.099 4.43657 12.796 4.09794C12.493 3.75931 11.9779 3.73435 11.6465 4.04522Z" fill="#FED215"/>
<path fill-rule="evenodd" clip-rule="evenodd" d="M10.6857 0.170582C7.21698 -0.415078 3.64168 0.58414 0.48762 1.99694C0.0761388 2.18291 -0.11157 2.67418 0.068267 3.0933C0.248375 3.5152 0.728761 3.70673 1.14024 3.52354C4.01275 2.23565 7.26147 1.28082 10.4207 1.81374C10.8639 1.88868 11.283 1.58059 11.3559 1.12816C11.4292 0.675735 11.1286 0.245524 10.6857 0.170582Z" fill="#FED215"/>
</svg>
