<svg width="131" height="18" viewBox="0 0 131 18" fill="none" xmlns="http://www.w3.org/2000/svg">
<path fill-rule="evenodd" clip-rule="evenodd" d="M34.916 10.6001C29.2879 12.2268 22.7899 13.8456 16.5389 14.2498C11.1961 14.5948 6.03534 14.0589 1.81122 11.779C1.21577 11.458 0.470107 11.6787 0.148082 12.2728C-0.174434 12.8664 0.0474472 13.6097 0.642899 13.9312C5.2509 16.4177 10.8696 17.068 16.6975 16.6912C23.0609 16.2802 29.6762 14.6506 35.4172 13.0004C36.0833 14.3457 37.4627 15.5999 39.8926 16.5253C43.6249 17.9469 48.7208 17.9293 54.0892 17.1282C61.8752 15.9669 70.2508 13.1977 75.6359 11.2299C75.8568 11.1497 76.1857 11.022 76.5882 10.8536C76.711 11.1238 76.8484 11.39 77.0006 11.6513C78.3211 13.9288 80.6577 15.7702 83.0386 16.4279C98.1384 20.5983 115.761 15.6014 130.11 11.5348C130.758 11.3503 131.136 10.6731 130.954 10.0237C130.768 9.3743 130.091 8.997 129.438 9.18149C115.491 13.1345 98.3691 18.1221 83.6914 14.0697C81.8849 13.5705 80.1276 12.1553 79.1261 10.4269C79.0132 10.2341 78.9151 10.0369 78.8218 9.83674C80.8001 8.85949 83.1269 7.49712 84.3787 6.03882C85.6648 4.54383 85.9839 2.94803 84.8647 1.4408C83.9025 0.152312 82.4446 0.0426937 80.9277 0.71067C79.293 1.42611 77.6093 3.09872 77.0644 3.88366C76.0433 5.34978 75.7193 6.94022 75.9059 8.491C75.4248 8.69359 75.0341 8.84431 74.7931 8.93239C69.5258 10.8566 61.3392 13.5725 53.7259 14.7083C48.8273 15.4394 44.1742 15.5368 40.7684 14.24C39.3158 13.6865 38.3561 13.0406 37.8353 12.2909C38.8632 11.9845 39.8543 11.6831 40.8013 11.3954C42.674 10.8262 46.5732 9.88422 49.359 8.20522C51.5744 6.87025 53.0765 5.05423 52.9891 2.77773C52.9445 1.60816 52.2655 0.827613 51.1851 0.390125C49.5705 -0.263171 46.7784 0.0529492 45.7386 0.273161C42.5852 0.93967 38.3763 3.6987 36.2939 6.8076C35.4628 8.04813 34.9685 9.34591 34.916 10.6001ZM37.5064 9.83575C38.3974 9.56856 39.2584 9.30626 40.0855 9.05473C41.8336 8.52329 45.4878 7.67913 48.089 6.11122C49.4665 5.28127 50.5911 4.2869 50.5366 2.87118C50.5322 2.76108 50.4227 2.72977 50.326 2.68475C50.1763 2.61575 50.005 2.56827 49.8224 2.53108C48.5868 2.27954 46.9271 2.52275 46.2477 2.66662C43.6018 3.22596 40.0821 5.55776 38.335 8.16654C37.9659 8.71756 37.6718 9.27886 37.5064 9.83575ZM78.3309 7.36449C79.4845 6.77286 80.6921 6.0574 81.6444 5.27883C82.15 4.86532 82.5771 4.44008 82.8471 3.99868C83.0729 3.63362 83.1613 3.25972 82.8913 2.89857C82.7833 2.75225 82.6213 2.74934 82.4544 2.77674C82.2777 2.8061 82.096 2.86872 81.9144 2.94947C80.7166 3.47504 79.4796 4.70285 79.082 5.27883C78.6156 5.9468 78.3849 6.65345 78.3309 7.36449Z" fill="#FED215"/>
</svg>
