<svg width="115" height="99" viewBox="0 0 115 99" fill="none" xmlns="http://www.w3.org/2000/svg">
<path fill-rule="evenodd" clip-rule="evenodd" d="M69.1605 41.1218C69.1341 39.2054 68.8832 37.2725 68.3814 35.3264C66.6218 28.4967 58.7712 24.1121 50.4154 23.0813C42.063 22.0504 33.3771 24.3963 30.0295 30.3371C28.1147 33.7337 27.8506 36.6612 28.633 39.1294C29.4121 41.5844 31.2608 43.6197 33.7698 45.2057C40.7654 49.6233 53.0169 50.5253 58.6061 48.6783C61.1911 47.8225 63.7165 46.7917 66.176 45.6121C64.7697 53.3339 59.5304 60.6492 52.5381 67.2409C37.3419 81.5676 13.7603 92.4414 0.917984 96.4394C0.227998 96.6542 -0.154992 97.3877 0.0595964 98.0782C0.274185 98.7688 1.00708 99.1554 1.69706 98.9407C14.7936 94.8634 38.8342 83.7582 54.3308 69.1474C62.3366 61.6008 68.0413 53.1059 69.0153 44.1748C87.1133 34.497 101.976 16.9389 114.683 2.1629C115.155 1.61772 115.092 0.788357 114.544 0.315867C113.996 -0.153319 113.171 -0.0938704 112.699 0.454614C100.51 14.626 86.3639 31.4837 69.1605 41.1218ZM66.5294 42.5261C66.6284 40.3718 66.417 38.1844 65.8459 35.9773C64.324 30.0662 57.3284 26.5704 50.0951 25.6783C45.6614 25.1331 41.1022 25.5825 37.5269 27.1817C35.2786 28.1862 33.4265 29.6433 32.3106 31.6258C30.8448 34.2261 30.5278 36.4498 31.1287 38.3364C31.7295 40.2363 33.2219 41.7628 35.1664 42.9886C41.5414 47.0163 52.6966 47.8722 57.784 46.1904C60.7849 45.1991 63.6968 43.9633 66.5294 42.5261Z" fill="#FED215"/>
</svg>
