<svg width="284" height="18" viewBox="0 0 284 18" fill="none" xmlns="http://www.w3.org/2000/svg">
<g id="underline">
<path id="Vector" fill-rule="evenodd" clip-rule="evenodd" d="M93.9041 1.53301C62.6685 1.1734 31.3055 2.48761 1.07191 8.00602C0.532491 8.1041 0.30856 8.29699 0.264426 8.34112C0.0061591 8.60266 -0.021677 8.88053 0.011015 9.10938C0.0306302 9.24832 0.16309 9.83513 0.887218 9.89561C1.38741 9.93647 4.9377 9.65042 6.3075 9.57687C12.756 9.23197 19.1915 8.73996 25.6236 8.17112C40.2075 6.88632 54.7718 5.7748 69.3785 4.76298C77.5793 4.19414 85.7834 3.72336 93.9826 3.33759C113.707 3.56807 133.383 4.46712 152.691 5.39557C145.016 5.86797 137.965 6.3469 132.118 6.65747C122.258 7.18055 112.416 7.79842 102.576 8.61245C97.5199 9.02927 92.4705 9.48207 87.4245 10.0166C86.8655 10.0771 85.5921 10.1392 84.9759 10.2127C84.7143 10.2422 84.5248 10.2896 84.4398 10.3223C83.9069 10.5282 83.8399 10.9499 83.8333 11.1624C83.8301 11.2916 83.8742 11.9961 84.7732 12.1334C126.575 18.577 170.186 11.0807 212.138 17.3445C212.63 17.418 213.091 17.078 213.165 16.5844C213.238 16.0924 212.898 15.6314 212.404 15.5579C172.893 9.65859 131.909 15.9665 92.3464 11.3357C95.8035 11.0006 99.2623 10.6982 102.724 10.4121C112.547 9.59975 122.371 8.98352 132.214 8.46044C142.12 7.93574 155.511 6.91083 169.527 6.26517C181.556 6.93535 193.579 7.68726 205.609 8.32476C210.685 8.59283 215.762 8.81515 220.836 9.08812C222.921 9.19928 228.288 9.66513 229.066 9.49187C229.671 9.35619 229.816 8.92304 229.852 8.70563C229.89 8.47025 229.867 8.17765 229.592 7.89813C229.507 7.80986 229.252 7.62679 228.729 7.47641C214.582 3.42424 191.416 3.48798 169.72 4.46711C165.053 4.20557 160.387 3.95711 155.718 3.73317C145.031 3.21827 134.226 2.70173 123.36 2.29472C153.984 1.5379 184.623 1.75531 215.27 2.3029C228.137 2.53338 262.822 3.92279 276.482 5.15038C276.316 5.32201 276.218 5.56066 276.229 5.82056C276.252 6.31748 276.675 6.70325 277.174 6.68036C279.992 6.54959 281.622 6.38287 282.267 6.21123C282.669 6.10498 282.888 5.93499 282.99 5.82383C283.238 5.55576 283.284 5.26806 283.235 4.99508C283.204 4.82508 283.127 4.63874 282.951 4.46711C282.833 4.34942 282.545 4.16962 282.055 4.04702C276.685 2.71156 230.624 0.771271 215.303 0.496658C174.815 -0.225835 134.344 -0.372935 93.9041 1.53301ZM217.777 7.12006C209.866 6.04613 200.591 5.66854 190.916 5.69306C195.844 5.97911 200.774 6.25864 205.706 6.52017C209.729 6.73431 213.753 6.91737 217.777 7.12006ZM56.5895 3.86559C46.2098 4.63058 35.8415 5.45768 25.465 6.37306C24.2669 6.47767 23.0704 6.58065 21.8722 6.682C33.3471 5.27624 44.9413 4.38212 56.5895 3.86559Z" fill="#FED215"/>
</g>
</svg>
